<?xml version="1.0" encoding="UTF-8"?>
<svg version="1.1" xmlns="http://www.w3.org/2000/svg" width="196" height="71">
<path d="M0 0 C64.68 0 129.36 0 196 0 C196 23.43 196 46.86 196 71 C131.32 71 66.64 71 0 71 C0 47.57 0 24.14 0 0 Z " fill="#FDFEFE" transform="translate(0,0)"/>
<path d="M0 0 C2.97 0.33 5.94 0.66 9 1 C9 3.31 9 5.62 9 8 C10.32 8 11.64 8 13 8 C12.979375 7.030625 12.95875 6.06125 12.9375 5.0625 C13 2 13 2 14 1 C15.85287502 0.92773498 17.70833878 0.9161878 19.5625 0.9375 C20.57441406 0.94652344 21.58632812 0.95554687 22.62890625 0.96484375 C23.80259766 0.98224609 23.80259766 0.98224609 25 1 C25 3.97 25 6.94 25 10 C23.35 10.33 21.7 10.66 20 11 C20.66 8.36 21.32 5.72 22 3 C21.34 3 20.68 3 20 3 C19.896875 3.94875 19.79375 4.8975 19.6875 5.875 C19 9 19 9 16 11 C13.7734375 11.23046875 13.7734375 11.23046875 11.375 11.1875 C10.57835938 11.18105469 9.78171875 11.17460938 8.9609375 11.16796875 C7 11 7 11 6 10 C5.95907063 7.66702567 5.95758277 5.33294775 6 3 C5.34 3 4.68 3 4 3 C4.33 5.64 4.66 8.28 5 11 C3.68 11 2.36 11 1 11 C1 8.69 1 6.38 1 4 C-0.32 6.64 -1.64 9.28 -3 12 C-3.33 12 -3.66 12 -4 12 C-4.33 8.37 -4.66 4.74 -5 1 C-4.34 1 -3.68 1 -3 1 C-2.67 1.66 -2.34 2.32 -2 3 C-1.34 2.01 -0.68 1.02 0 0 Z " fill="#2A2A2A" transform="translate(64,29)"/>
<path d="M0 0 C2.57161458 0.03255208 5.14322917 0.06510417 7.71484375 0.09765625 C7.71484375 3.39765625 7.71484375 6.69765625 7.71484375 10.09765625 C5.40484375 10.09765625 3.09484375 10.09765625 0.71484375 10.09765625 C0.38484375 9.43765625 0.05484375 8.77765625 -0.28515625 8.09765625 C-0.61515625 8.75765625 -0.94515625 9.41765625 -1.28515625 10.09765625 C-1.94515625 10.09765625 -2.60515625 10.09765625 -3.28515625 10.09765625 C-3.31204841 8.61858733 -3.33150246 7.13938142 -3.34765625 5.66015625 C-3.35925781 4.83644531 -3.37085937 4.01273438 -3.3828125 3.1640625 C-3.24381204 0.22281267 -2.9444484 0.12583113 0 0 Z " fill="#0B0B0B" transform="translate(93.28515625,29.90234375)"/>
<path d="M0 0 C2.64 0.33 5.28 0.66 8 1 C8 3.64 8 6.28 8 9 C9.32 9.33 10.64 9.66 12 10 C10.34385343 10.38218767 8.67542976 10.71395102 7 11 C6 10 6 10 5.9375 6.4375 C5.958125 5.303125 5.97875 4.16875 6 3 C5.34 3 4.68 3 4 3 C4.33 5.64 4.66 8.28 5 11 C3.68 11 2.36 11 1 11 C1 8.69 1 6.38 1 4 C-0.32 6.64 -1.64 9.28 -3 12 C-3.33 12 -3.66 12 -4 12 C-4.33 8.37 -4.66 4.74 -5 1 C-4.34 1 -3.68 1 -3 1 C-2.67 1.66 -2.34 2.32 -2 3 C-1.34 2.01 -0.68 1.02 0 0 Z " fill="#121212" transform="translate(64,29)"/>
<path d="M0 0 C1.32 0.66 2.64 1.32 4 2 C4.33 1.34 4.66 0.68 5 0 C5.99 0.33 6.98 0.66 8 1 C8 3.97 8 6.94 8 10 C7.34 9.34 6.68 8.68 6 8 C5.01 8.66 4.02 9.32 3 10 C2.67 9.34 2.34 8.68 2 8 C1.67 8.66 1.34 9.32 1 10 C0.34 10 -0.32 10 -1 10 C-1.125 2.25 -1.125 2.25 0 0 Z " fill="#111111" transform="translate(103,30)"/>
<path d="M0 0 C1.65 0 3.3 0 5 0 C5.33 0.33 5.66 0.66 6 1 C5.71269945 3.33944736 5.38063221 5.6739143 5 8 C4.01 8 3.02 8 2 8 C2 9.32 2 10.64 2 12 C1.34 12 0.68 12 0 12 C0 8.04 0 4.08 0 0 Z " fill="#8CE9ED" transform="translate(116,32)"/>
<path d="M0 0 C0.66 0.66 1.32 1.32 2 2 C0.35 5.3 -1.3 8.6 -3 12 C-3.33 12 -3.66 12 -4 12 C-4.33 8.37 -4.66 4.74 -5 1 C-4.34 1 -3.68 1 -3 1 C-2.67 1.66 -2.34 2.32 -2 3 C-1.34 2.01 -0.68 1.02 0 0 Z " fill="#181818" transform="translate(64,29)"/>
<path d="M0 0 C1.98 0 3.96 0 6 0 C5.4140625 6.15234375 5.4140625 6.15234375 5 8 C4.01 8.495 4.01 8.495 3 9 C2.67 7.35 2.34 5.7 2 4 C1.01 4.33 0.02 4.66 -1 5 C-0.67 3.35 -0.34 1.7 0 0 Z " fill="#757575" transform="translate(93,30)"/>
<path d="M0 0 C2.475 0.495 2.475 0.495 5 1 C5 2.98 5 4.96 5 7 C3.35 7.33 1.7 7.66 0 8 C0 5.36 0 2.72 0 0 Z " fill="#71E4E9" transform="translate(127,32)"/>
<path d="M0 0 C1.32 0 2.64 0 4 0 C4 2.97 4 5.94 4 9 C2.35 9.33 0.7 9.66 -1 10 C-0.67 9.34 -0.34 8.68 0 8 C0.0689472 6.62657169 0.08467708 5.24997898 0.0625 3.875 C0.041875 2.59625 0.02125 1.3175 0 0 Z " fill="#0B0B0B" transform="translate(85,30)"/>
<path d="M0 0 C0.33 0.66 0.66 1.32 1 2 C2.32 1.67 3.64 1.34 5 1 C5 2.32 5 3.64 5 5 C4.01 5 3.02 5 2 5 C2 6.32 2 7.64 2 9 C1.34 9 0.68 9 0 9 C0 6.03 0 3.06 0 0 Z " fill="#6CE3E8" transform="translate(116,35)"/>
<path d="M0 0 C1.2065625 0.0309375 1.2065625 0.0309375 2.4375 0.0625 C2.1075 1.0525 1.7775 2.0425 1.4375 3.0625 C0.7775 3.0625 0.1175 3.0625 -0.5625 3.0625 C-0.8925 4.3825 -1.2225 5.7025 -1.5625 7.0625 C-2.2225 7.0625 -2.8825 7.0625 -3.5625 7.0625 C-3.60504356 5.06295254 -3.60330783 3.06208364 -3.5625 1.0625 C-2.5625 0.0625 -2.5625 0.0625 0 0 Z " fill="#6A6A6A" transform="translate(82.5625,29.9375)"/>
<path d="M0 0 C0.99 0.33 1.98 0.66 3 1 C3 2.98 3 4.96 3 7 C1.68 7.33 0.36 7.66 -1 8 C-1 7.34 -1 6.68 -1 6 C-0.34 6 0.32 6 1 6 C0.34 4.35 -0.32 2.7 -1 1 C-0.67 0.67 -0.34 0.34 0 0 Z " fill="#6AE3E8" transform="translate(134,32)"/>
<path d="M0 0 C0.33 0 0.66 0 1 0 C1.125 2.875 1.125 2.875 1 6 C0.34 6.66 -0.32 7.32 -1 8 C-1.66 8 -2.32 8 -3 8 C-1.125 1.125 -1.125 1.125 0 0 Z " fill="#E1E1E1" transform="translate(65,32)"/>
<path d="M0 0 C0.66 0 1.32 0 2 0 C1.67 2.64 1.34 5.28 1 8 C0.34 8 -0.32 8 -1 8 C-1.04241723 5.66705225 -1.04092937 3.33297433 -1 1 C-0.67 0.67 -0.34 0.34 0 0 Z " fill="#050505" transform="translate(99,30)"/>
</svg>
