<?xml version="1.0" encoding="UTF-8"?>
<svg version="1.1" xmlns="http://www.w3.org/2000/svg" width="196" height="71">
<path d="M0 0 C2.375 1.5 2.375 1.5 4 3 C4.99 2.34 5.98 1.68 7 1 C9.26171875 0.8046875 9.26171875 0.8046875 11.6875 0.875 C12.89986328 0.90207031 12.89986328 0.90207031 14.13671875 0.9296875 C15.05904297 0.96449219 15.05904297 0.96449219 16 1 C16.625 2.875 16.625 2.875 17 5 C16.34 5.66 15.68 6.32 15 7 C14.53513282 10.12196336 14.53513282 10.12196336 14.375 13.625 C14.30023438 14.81351563 14.22546875 16.00203125 14.1484375 17.2265625 C14.07496094 18.59941406 14.07496094 18.59941406 14 20 C14.66 20.33 15.32 20.66 16 21 C15.505 23.475 15.505 23.475 15 26 C11.55426223 27.14857926 8.84375345 27.03468706 5.25390625 26.9375 C3.01797975 26.99950143 1.14080511 27.3758017 -1 28 C-4 22.25 -4 22.25 -4 20 C-4.66 20 -5.32 20 -6 20 C-6.33 22.31 -6.66 24.62 -7 27 C-8.8125 27.6875 -8.8125 27.6875 -11 28 C-12.75 26.5625 -12.75 26.5625 -14 25 C-14.99 25.66 -15.98 26.32 -17 27 C-19.26171875 27.1953125 -19.26171875 27.1953125 -21.6875 27.125 C-22.49574219 27.10695313 -23.30398437 27.08890625 -24.13671875 27.0703125 C-24.75160156 27.04710938 -25.36648437 27.02390625 -26 27 C-25.52328556 24.2986182 -24.93934105 21.83318789 -24 19.25 C-22.75075432 15.18995154 -22.35628424 11.21915543 -22 7 C-23.32 7 -24.64 7 -26 7 C-25.79375 7.680625 -25.5875 8.36125 -25.375 9.0625 C-24.8632503 13.07120599 -25.39136154 15.26795877 -27 19 C-30.32714161 22.91794246 -33.77850285 26.18245662 -39 26.9375 C-40.485 26.9684375 -40.485 26.9684375 -42 27 C-42.66 26.01 -43.32 25.02 -44 24 C-44.99 24.495 -45.98 24.99 -47 25.5 C-51.13477234 27.30103581 -54.53198453 27.23515871 -59 27 C-60.2639536 23.20813919 -60.18414402 19.6374828 -60.1875 15.6875 C-60.19974609 14.94048828 -60.21199219 14.19347656 -60.22460938 13.42382812 C-60.23656474 8.88477563 -59.71951855 5.27500858 -58 1 C-56.68 1 -55.36 1 -54 1 C-52.414131 4.171738 -52.62133555 7.63513822 -52.4375 11.125 C-52.39431641 11.87910156 -52.35113281 12.63320313 -52.30664062 13.41015625 C-52.2005168 15.27321888 -52.09974999 17.13658524 -52 19 C-49.36 19 -46.72 19 -44 19 C-43.96261719 17.95199219 -43.92523438 16.90398438 -43.88671875 15.82421875 C-43.82105485 14.44527695 -43.75460765 13.06637229 -43.6875 11.6875 C-43.66494141 10.99720703 -43.64238281 10.30691406 -43.61914062 9.59570312 C-43.46690277 6.73086355 -43.31597778 4.50255513 -41.76953125 2.04296875 C-39.41186293 0.65334968 -37.72678607 0.6006537 -35 0.625 C-34.13375 0.61726563 -33.2675 0.60953125 -32.375 0.6015625 C-29.60619233 1.06606642 -28.73070701 1.84800246 -27 4 C-26.44570312 3.51015625 -25.89140625 3.0203125 -25.3203125 2.515625 C-22.57190692 0.72037018 -21.1194807 0.65314983 -17.875 0.75 C-17.00617188 0.76546875 -16.13734375 0.7809375 -15.2421875 0.796875 C-13 1 -13 1 -11 2 C-10.2575 1.690625 -9.515 1.38125 -8.75 1.0625 C-5.56135085 -0.16947808 -3.39337764 -0.36099762 0 0 Z M-15 6 C-16.87725894 7.87725894 -16.21702304 10.92850307 -16.25 13.4375 C-16.27578125 14.61183594 -16.3015625 15.78617188 -16.328125 16.99609375 C-16.21984375 17.98738281 -16.1115625 18.97867188 -16 20 C-14.515 20.99 -14.515 20.99 -13 22 C-13 16.72 -13 11.44 -13 6 C-13.66 6 -14.32 6 -15 6 Z M4 7 C3.690625 8.093125 3.38125 9.18625 3.0625 10.3125 C2.41662103 12.55407994 1.7376883 14.7869351 1 17 C1.88319294 20.15020361 1.88319294 20.15020361 3 23 C5.80844958 20.72228105 6.91735478 19.63802112 7.390625 15.984375 C7.34421875 14.91703125 7.2978125 13.8496875 7.25 12.75 C7.21390625 11.67234375 7.1778125 10.5946875 7.140625 9.484375 C7.09421875 8.66453125 7.0478125 7.8446875 7 7 C6.01 7 5.02 7 4 7 Z M-36 8 C-37.23267348 9.00836062 -37.23267348 9.00836062 -37.09765625 11.06640625 C-37.08605469 11.89011719 -37.07445313 12.71382812 -37.0625 13.5625 C-37.05347656 14.38878906 -37.04445313 15.21507812 -37.03515625 16.06640625 C-37.02355469 16.70449219 -37.01195313 17.34257813 -37 18 C-34.98562946 17.22236202 -34.98562946 17.22236202 -33 16 C-32.18415432 12.94091587 -32.18415432 12.94091587 -32 10 C-33.32 9.34 -34.64 8.68 -36 8 Z M-6 8 C-5.67 9.32 -5.34 10.64 -5 12 C-4.34 11.67 -3.68 11.34 -3 11 C-3 10.01 -3 9.02 -3 8 C-3.99 8 -4.98 8 -6 8 Z " fill="#ED2D2D" transform="translate(92,20)"/>
<path d="M0 0 C2 2 2 2 2.1953125 5.9140625 C2.18200376 7.48449351 2.15813602 9.05486221 2.125 10.625 C2.11597656 11.42679688 2.10695312 12.22859375 2.09765625 13.0546875 C2.07406223 15.03658523 2.03819065 17.01832981 2 19 C2.99 19.33 3.98 19.66 5 20 C5.11269443 13.8894576 4.89604368 8.04829486 4 2 C5.65 1.67 7.3 1.34 9 1 C11.7090034 5.66150319 12.45659649 9.18589008 12.5 14.5625 C12.5309375 15.84253906 12.561875 17.12257813 12.59375 18.44140625 C11.85683997 22.85801832 10.50291002 24.2964459 7 27 C3.5 27.625 3.5 27.625 0 27 C-2.63016161 24.8272578 -4.47336894 23.05326212 -6 20 C-6.07092842 17.7927077 -6.08415025 15.58332548 -6.0625 13.375 C-6.05347656 12.18648437 -6.04445312 10.99796875 -6.03515625 9.7734375 C-6.02355469 8.85820312 -6.01195312 7.94296875 -6 7 C-6.99 7 -7.98 7 -9 7 C-9.01458252 7.56509277 -9.02916504 8.13018555 -9.04418945 8.71240234 C-9.11856058 11.26730019 -9.21525242 13.82087498 -9.3125 16.375 C-9.34633789 17.70917969 -9.34633789 17.70917969 -9.38085938 19.0703125 C-9.41630859 19.92109375 -9.45175781 20.771875 -9.48828125 21.6484375 C-9.51446533 22.43395996 -9.54064941 23.21948242 -9.56762695 24.02880859 C-10 26 -10 26 -13 28 C-13.99 27.34 -14.98 26.68 -16 26 C-16.34057617 24.12060547 -16.34057617 24.12060547 -16.29296875 21.8671875 C-16.28330078 21.06152344 -16.27363281 20.25585938 -16.26367188 19.42578125 C-16.23853516 18.58402344 -16.21339844 17.74226563 -16.1875 16.875 C-16.17396484 16.02550781 -16.16042969 15.17601562 -16.14648438 14.30078125 C-16.11108219 12.20025163 -16.05727401 10.10004707 -16 8 C-17.65 8 -19.3 8 -21 8 C-21.33 6.68 -21.66 5.36 -22 4 C-15.00908554 0.17164208 -7.91738989 -0.84015468 0 0 Z " fill="#EC2D2D" transform="translate(161,20)"/>
<path d="M0 0 C0.90492187 0.46019531 0.90492187 0.46019531 1.828125 0.9296875 C4.34457433 2.16980821 5.96710487 2.20684986 8.75 2.125 C9.94882812 2.09792969 9.94882812 2.09792969 11.171875 2.0703125 C12.07679687 2.03550781 12.07679687 2.03550781 13 2 C13.33 3.65 13.66 5.3 14 7 C13.01 7.495 13.01 7.495 12 8 C11.56896902 10.51948641 11.56896902 10.51948641 11.4375 13.4375 C11.0941704 18.81165919 11.0941704 18.81165919 10 21 C10.99 21.33 11.98 21.66 13 22 C12.67 23.65 12.34 25.3 12 27 C9.24921116 27.91692961 7.64051087 28.10886083 4.8125 28.0625 C2.9253125 28.0315625 2.9253125 28.0315625 1 28 C0.67 27.01 0.34 26.02 0 25 C0.48082031 24.65324219 0.96164063 24.30648437 1.45703125 23.94921875 C3.75358112 21.04800765 3.52026199 18.45828853 3.6875 14.8125 C3.75324219 13.54019531 3.81898437 12.26789062 3.88671875 10.95703125 C3.92410156 9.98121094 3.96148438 9.00539063 4 8 C3.34 8 2.68 8 2 8 C1.90203125 8.83917969 1.8040625 9.67835937 1.703125 10.54296875 C0.90988241 14.44307813 -0.50000495 17.77155258 -2.25 21.3125 C-2.53746094 21.94478516 -2.82492187 22.57707031 -3.12109375 23.22851562 C-4.015625 25.05078125 -4.015625 25.05078125 -6 28 C-8.734375 28.91796875 -8.734375 28.91796875 -11 29 C-12.22135801 25.94660498 -11.94924071 24.84772212 -10.875 21.625 C-9.77663254 17.07462052 -10.82853946 16.02122323 -13 12 C-14.58091787 4.16183575 -14.58091787 4.16183575 -13 1 C-10.6875 1.1875 -10.6875 1.1875 -8 2 C-6.1875 4.5625 -6.1875 4.5625 -5 7 C-4.54625 6.030625 -4.0925 5.06125 -3.625 4.0625 C-2 1 -2 1 0 0 Z " fill="#E92C2C" transform="translate(18,19)"/>
<path d="M0 0 C3.26296197 0.22503186 4.04203745 1.04787598 6.25 3.5625 C6.8275 4.366875 7.405 5.17125 8 6 C9.32 4.02 10.64 2.04 12 0 C14.375 0.25 14.375 0.25 17 1 C20.70258353 6.37262995 20.58794952 15.24068643 19.61328125 21.47265625 C19.0625 23.375 19.0625 23.375 18 26 C17.01 26 16.02 26 15 26 C13.515 22.535 13.515 22.535 12 19 C11.01 20.98 10.02 22.96 9 25 C7.125 24.8125 7.125 24.8125 5 24 C3.75 21.4375 3.75 21.4375 3 19 C2.34 20.98 1.68 22.96 1 25 C-0.32 25 -1.64 25 -3 25 C-5.51614279 19.96771442 -4.73561414 10.90183982 -3.36328125 5.48828125 C-2.48589445 3.44675196 -1.58759478 1.58759478 0 0 Z " fill="#ED2D2D" transform="translate(113,21)"/>
<path d="M0 0 C2.6130799 2.2759083 2.95341496 3.5527836 3.3125 7 C3 10 3 10 1.95703125 11.796875 C0.65367429 14.79725593 1.02399823 17.02078373 1.375 20.25 C1.48585937 21.32765625 1.59671875 22.4053125 1.7109375 23.515625 C1.80632812 24.33546875 1.90171875 25.1553125 2 26 C0.68 26.33 -0.64 26.66 -2 27 C-3.89213369 24.61426621 -5.02391783 22.92824652 -6 20 C-6.66 19.67 -7.32 19.34 -8 19 C-7.979375 19.94875 -7.95875 20.8975 -7.9375 21.875 C-8 25 -8 25 -9 27 C-10.32 27 -11.64 27 -13 27 C-14.27861615 24.44276771 -14.11336609 22.63262898 -14.09765625 19.7734375 C-14.09443359 18.7421875 -14.09121094 17.7109375 -14.08789062 16.6484375 C-14.07951172 15.56820312 -14.07113281 14.48796875 -14.0625 13.375 C-14.05798828 12.28703125 -14.05347656 11.1990625 -14.04882812 10.078125 C-14.03701776 7.38536211 -14.02054778 4.69270812 -14 2 C-8.75109083 -0.4172608 -5.85885691 -1.69005488 0 0 Z M-8 7 C-7.34 8.32 -6.68 9.64 -6 11 C-5.34 9.68 -4.68 8.36 -4 7 C-5.32 7 -6.64 7 -8 7 Z " fill="#EB2D2D" transform="translate(189,21)"/>
<path d="M0 0 C1.29550781 -0.02126953 1.29550781 -0.02126953 2.6171875 -0.04296875 C5.2491288 0.19890748 6.86480544 0.85766459 9.125 2.1875 C8.465 2.8475 7.805 3.5075 7.125 4.1875 C6.75547951 6.31610662 6.75547951 6.31610662 6.7109375 8.7578125 C6.65292969 10.10166016 6.65292969 10.10166016 6.59375 11.47265625 C6.54734375 12.87837891 6.54734375 12.87837891 6.5 14.3125 C6.44199219 15.72982422 6.44199219 15.72982422 6.3828125 17.17578125 C6.28838654 19.51282375 6.20281606 21.84985501 6.125 24.1875 C2.69231802 25.73617002 0.07492634 26.42481123 -3.6875 26.3125 C-4.47769531 26.29445313 -5.26789063 26.27640625 -6.08203125 26.2578125 C-6.67371094 26.23460938 -7.26539062 26.21140625 -7.875 26.1875 C-7.39828556 23.4861182 -6.81434105 21.02068789 -5.875 18.4375 C-4.62575432 14.37745154 -4.23128424 10.40665543 -3.875 6.1875 C-5.525 6.1875 -7.175 6.1875 -8.875 6.1875 C-6.92012233 0.74176936 -5.71031011 0.04236135 0 0 Z M3.125 5.1875 C1.24774106 7.06475894 1.90797696 10.11600307 1.875 12.625 C1.84921875 13.79933594 1.8234375 14.97367188 1.796875 16.18359375 C1.90515625 17.17488281 2.0134375 18.16617188 2.125 19.1875 C3.61 20.1775 3.61 20.1775 5.125 21.1875 C5.125 15.9075 5.125 10.6275 5.125 5.1875 C4.465 5.1875 3.805 5.1875 3.125 5.1875 Z " fill="#DF2A2A" transform="translate(73.875,20.8125)"/>
<path d="M0 0 C1.32 0 2.64 0 4 0 C5.585869 3.171738 5.37866445 6.63513822 5.5625 10.125 C5.60568359 10.87910156 5.64886719 11.63320313 5.69335938 12.41015625 C5.7994832 14.27321888 5.90025001 16.13658524 6 18 C8.64 18 11.28 18 14 18 C14 16.35 14 14.7 14 13 C14.33 13 14.66 13 15 13 C15.48801743 20.32026144 15.48801743 20.32026144 13.25 23.4375 C8.7012539 26.59635146 4.38245326 26.08970755 -1 26 C-2.2639536 22.20813919 -2.18414402 18.6374828 -2.1875 14.6875 C-2.19974609 13.94048828 -2.21199219 13.19347656 -2.22460938 12.42382812 C-2.23656474 7.88477563 -1.71951855 4.27500858 0 0 Z " fill="#E42B2B" transform="translate(34,21)"/>
</svg>
