<svg width="153" height="24" viewBox="0 0 153 24" fill="none" xmlns="http://www.w3.org/2000/svg">
<path d="M49.5812 9.29967V4.62927H38.6749V-9.15527e-05H31.791V4.62927H28.3488V9.29967H31.791V17.4211C31.791 20.2908 32.8091 22.1862 34.8461 23.1064C36.1609 23.7012 38.4041 23.9992 41.5754 23.9992C44.8762 23.9992 47.0671 23.3635 48.1501 22.0915C49.1044 20.9809 49.5812 18.7341 49.5812 15.3504H44.3603V16.2029C44.3603 17.1778 44.1286 17.8542 43.664 18.2337C43.2002 18.5854 42.4776 18.7614 41.4983 18.7614C40.3894 18.7614 39.6418 18.4907 39.255 17.9489C38.8683 17.4075 38.6749 16.5413 38.6749 15.3504V9.29967H49.5812Z" fill="#EC1D24"/>
<path fill-rule="evenodd" clip-rule="evenodd" d="M24.5192 17.3797H17.8673C17.816 18.0835 17.7127 18.5439 17.5581 18.761C17.1717 19.3025 16.0625 19.5725 14.2321 19.5725L10.4416 19.4915C9.07554 19.4648 8.12128 19.1534 7.57993 18.5576C7.06441 17.9348 6.80648 16.8926 6.80648 15.4309H24.5192C24.442 12.6153 24.3775 10.9366 24.3262 10.3951C24.1199 7.82356 22.9597 6.07751 20.8456 5.15697C19.4275 4.5338 17.2488 4.22275 14.3093 4.22275C11.8085 4.22275 9.69402 4.26308 7.96666 4.34443C5.00163 4.48015 2.92629 5.26498 1.74027 6.70032C0.580091 8.10726 0 10.3951 0 13.5628C0 16.9743 0.515158 19.4105 1.54655 20.8725C2.73292 22.5508 4.88539 23.5117 8.0054 23.7554C10.1453 23.9178 12.2981 23.9988 14.4639 23.9988C17.6356 23.9988 19.9043 23.687 21.2707 23.0656C23.3852 22.1174 24.4679 20.2227 24.5192 17.3797ZM16.747 8.93406C17.5201 9.39486 17.9072 10.3417 17.9072 11.7771H6.80727C6.78108 11.6683 6.76816 11.4923 6.76816 11.2489C6.76816 10.0033 7.27113 9.19112 8.27669 8.81203C8.89588 8.5683 9.90145 8.44697 11.2934 8.44697H13.8075C15.2256 8.44697 16.2053 8.60933 16.747 8.93406Z" fill="#EC1D24"/>
<path d="M78.6249 9.78728H71.586C71.4572 8.92109 70.2712 8.488 68.0276 8.488H65.1271C63.916 8.488 63.1164 8.52868 62.7293 8.61004C61.7241 8.82641 61.2215 9.34051 61.2215 10.153C61.2215 11.0192 61.9691 11.4523 63.4643 11.4523C66.9198 11.4523 69.3815 11.466 70.8516 11.4934C73.7901 11.547 75.7503 11.7778 76.73 12.1835C78.5865 12.9687 79.5146 14.6064 79.5146 17.0973C79.5146 18.6939 79.3342 19.8992 78.9729 20.7111C78.509 21.713 77.6319 22.4708 76.3433 22.9852C74.6676 23.6617 71.586 24.0001 67.1002 24.0001H64.2762C61.0798 24.0001 58.862 23.7431 57.624 23.2297C55.4848 22.3358 54.3884 20.5084 54.3375 17.7467H61.3377C61.3632 18.6129 61.8012 19.168 62.6525 19.4118C63.2197 19.5738 64.1477 19.6558 65.4367 19.6558H67.0224C67.2548 19.6558 67.5637 19.6688 67.9504 19.6962H68.608C69.8974 19.6962 70.7612 19.6422 71.1992 19.5338C72.2568 19.2631 72.7849 18.6813 72.7849 17.7874C72.7849 16.8402 71.9989 16.3661 70.4261 16.3661H65.3983C62.7425 16.3661 60.8347 16.3121 59.6745 16.2037C56.1933 15.879 54.453 13.9569 54.453 10.4374C54.453 8.21692 55.201 6.64691 56.6962 5.72672C57.7538 5.07691 59.4546 4.64381 61.8012 4.42744C63.0134 4.31873 65.1917 4.26437 68.3375 4.26437C73.4679 4.26437 76.5492 4.92822 77.581 6.25485C78.1736 7.03968 78.5223 8.21692 78.6249 9.78728Z" fill="#EC1D24"/>
<path d="M101.017 4.50846H88.4476V0.203827H85.7405V4.50846H81.3322V6.945H85.7405V17.4627C85.7405 20.17 86.5132 21.9837 88.0608 22.9039C89.1435 23.5537 91.0901 23.8777 93.9009 23.8777C97.3039 23.8777 99.47 23.2286 100.398 21.9297C101.12 20.9551 101.481 18.7076 101.481 15.1885H98.9671C98.9671 15.4322 98.98 15.784 99.0054 16.2434V17.3403C99.0054 19.046 98.4774 20.1829 97.4205 20.7517C96.6983 21.1575 95.4212 21.3609 93.5913 21.3609C91.5547 21.3609 90.1878 21.0221 89.4919 20.3456C88.7955 19.6418 88.4476 18.2342 88.4476 16.1224V6.945H101.017V4.50846Z" fill="#EC1D24"/>
<path d="M127.316 23.5933H124.609V19.8989C124.016 21.5229 122.869 22.6461 121.167 23.2686C120.007 23.6743 118.382 23.8774 116.294 23.8774C112.84 23.8774 110.364 23.5123 108.869 22.7818C106.625 21.6716 105.504 19.5194 105.504 16.3247V4.50809H108.211V14.9441C108.211 17.732 108.843 19.5468 110.106 20.3856C111.061 21.0354 112.968 21.3605 115.83 21.3605C118.795 21.3605 120.858 21.0621 122.018 20.4666C123.745 19.5468 124.609 17.7057 124.609 14.9441V4.50809H127.316V23.5933Z" fill="#EC1D24"/>
<path d="M136.173 4.50831H133.465V23.5935H136.173V12.9142C136.173 10.3696 136.804 8.66355 138.067 7.79737C139.073 7.09355 140.877 6.74146 143.482 6.74146H144.41C146.705 6.74146 148.213 7.17455 148.935 8.04074C149.657 8.90693 150.018 10.532 150.018 12.9142H152.686C152.686 12.8325 152.699 12.6838 152.725 12.4674V12.021C152.725 8.6362 151.926 6.41673 150.327 5.36082C149.167 4.60229 146.86 4.22391 143.404 4.22391C141.548 4.22391 140.117 4.41328 139.112 4.79201C137.616 5.36082 136.637 6.38937 136.173 7.87837V4.50831Z" fill="#EC1D24"/>
</svg>
